<?xml version="1.0" encoding="UTF-8"?>
<svg width="1000px" height="1000px" viewBox="0 0 1000 1000" version="1.1" xmlns="http://www.w3.org/2000/svg" xmlns:xlink="http://www.w3.org/1999/xlink">
    <!-- Generator: Sketch 55.2 (78181) - https://sketchapp.com -->
    <title>icon</title>
    <desc>Created with Sketch.</desc>
    <g id="Page-1" stroke="none" stroke-width="1" fill="none" fill-rule="evenodd">
        <g id="Icon">
            <g id="icon">
                <circle id="Oval" stroke="#2C3E50" stroke-width="10" fill="#34495E" cx="500" cy="500" r="495"></circle>
                <path d="M804,494 C804,326.105436 667.894564,190 500,190 C332.105436,190 196,326.105436 196,494" id="Oval" stroke="#ECF0F1" stroke-width="50"></path>
                <path d="M864.501366,494 C864.501366,292.416066 701.308546,129 500,129 C298.691454,129 135.498634,292.416066 135.498634,494" id="Oval" stroke="#ECF0F1" stroke-width="50"></path>
                <polyline id="Path-2" stroke="#ECF0F1" stroke-width="50" stroke-linecap="square" points="258 519 258 827.778404 500.5 885 743 827.778404 743 519"></polyline>
                <polyline id="Path-2" stroke="#ECF0F1" stroke-width="50" stroke-linecap="square" points="318 519 318 780.816067 499.5 823 681 780.816067 681 519"></polyline>
                <path d="M503.485993,702 C546.513133,702 627.295566,667.79261 546.513133,577.086512 C568.154947,445.42231 568.154947,465.101035 568.154947,445.42231 C568.154947,407.633712 537.471621,377 499.621821,377 C461.77202,377 431.088694,407.633712 431.088694,445.42231 C431.088694,456.444699 430.263084,440.508009 462.9234,577.086512 C381.319991,662.878309 462.9234,702 503.485993,702 Z" id="Oval" stroke="#ECF0F1" stroke-width="50" transform="translate(504.500000, 539.500000) scale(1, -1) translate(-504.500000, -539.500000) "></path>
            </g>
        </g>
    </g>
</svg>